# xmcd
# 
# Track frame offsets:
#     150
#     31524
#     52666
#     89799
#     98499
#     119946
#     137133
#     160199
#     189194
#     223158
#     230214
#     264846
#     297235
#     305820
#     311368
#     330367
#     355977
# 
# Disc length: 4750
# 
# Revision: 2
# Processed by: cddbd v1.5.2PL0 Copyright (c) Steve Scherf et al.
# Submitted via: BonkEnc v1.0.8
# 
DISCID=f4128c11
DTITLE=Friedrich Dürrenmatt - Das Versprechen
DYEAR=1997
DGENRE=Hörbuch
TTITLE0=Das Versprechen - Friedrich Dürrenmatt
TTITLE1=Das Versprechen - Friedrich Dürrenmatt
TTITLE2=Das Versprechen - Friedrich Dürrenmatt
TTITLE3=Das Versprechen - Friedrich Dürrenmatt
TTITLE4=Das Versprechen - Friedrich Dürrenmatt
TTITLE5=Das Versprechen - Friedrich Dürrenmatt
TTITLE6=Das Versprechen - Friedrich Dürrenmatt
TTITLE7=Das Versprechen - Friedrich Dürrenmatt
TTITLE8=Das Versprechen - Friedrich Dürrenmatt
TTITLE9=Das Versprechen - Friedrich Dürrenmatt
TTITLE10=Das Versprechen - Friedrich Dürrenmatt
TTITLE11=Das Versprechen - Friedrich Dürrenmatt
TTITLE12=Das Versprechen - Friedrich Dürrenmatt
TTITLE13=Das Versprechen - Friedrich Dürrenmatt
TTITLE14=Das Versprechen - Friedrich Dürrenmatt
TTITLE15=Das Versprechen - Friedrich Dürrenmatt
TTITLE16=Das Versprechen - Friedrich Dürrenmatt
EXTD=
EXTT0=
EXTT1=
EXTT2=
EXTT3=
EXTT4=
EXTT5=
EXTT6=
EXTT7=
EXTT8=
EXTT9=
EXTT10=
EXTT11=
EXTT12=
EXTT13=
EXTT14=
EXTT15=
EXTT16=
PLAYORDER=
